<svg width="371" height="59" viewBox="0 0 371 59" fill="none" xmlns="http://www.w3.org/2000/svg">
<line x1="241.5" y1="3" x2="241.5" y2="58" stroke="black"/>
<path d="M17.86 50.1889C12.3731 50.1889 7.90637 45.7222 7.90637 40.2353V3.02637C3.13636 6.23855 0 11.6841 0 17.8603V40.2353C0 50.0993 7.99598 58.0953 17.86 58.0953H40.235C46.4181 58.0953 51.8636 54.952 55.0689 50.182H17.86V50.1889Z" fill="url(#paint0_linear_6115_32380)"/>
<path d="M55.0823 0H50.6431C50.1882 1.24765 49.6781 2.53666 49.1129 3.86013C48.7889 4.61148 49.7332 5.26632 50.3122 4.69419L55.0754 0H55.0823Z" fill="url(#paint1_linear_6115_32380)"/>
<path d="M22.2852 0H17.8598C15.9918 0 14.1927 0.28951 12.5039 0.820278V36.8849C12.5039 37.7259 13.6757 37.9396 13.9652 37.1469C20.1828 20.2864 21.9681 7.87191 22.2852 0Z" fill="url(#paint2_linear_6115_32380)"/>
<path d="M34.9344 0H26.9246C26.6695 6.82416 25.3599 16.7502 21.3205 29.785C21.1344 30.3778 21.9409 30.757 22.2649 30.2331C29.5509 18.4114 33.1835 8.05802 34.9344 0Z" fill="url(#paint3_linear_6115_32380)"/>
<path d="M46.5761 0.000545434H39.6416C38.5525 5.29444 36.5949 12.0014 33.0863 19.7079C32.7554 20.4317 33.6791 21.0727 34.2444 20.5144L35.7539 19.0255C40.9169 12.284 44.3289 5.81142 46.5761 -0.00634766V0.000545434Z" fill="url(#paint4_linear_6115_32380)"/>
<path d="M57.4128 3.5293V7.96845C56.1651 8.42339 54.8761 8.93348 53.5526 9.49871C52.8013 9.82269 52.1464 8.87833 52.7255 8.29932L57.4197 3.53619L57.4128 3.5293Z" fill="url(#paint5_linear_6115_32380)"/>
<path d="M57.4128 36.3335V40.7589C57.4128 42.6269 57.1233 44.426 56.5926 46.1148H20.5279C19.687 46.1148 19.4733 44.943 20.266 44.6535C37.1334 38.4359 49.5478 36.6506 57.4128 36.3335Z" fill="url(#paint6_linear_6115_32380)"/>
<path d="M57.4121 23.6846V31.6943C50.588 31.9494 40.6619 33.2591 27.634 37.2984C27.0412 37.4845 26.662 36.678 27.1859 36.3541C39.0007 29.0681 49.361 25.4423 57.4121 23.6846Z" fill="url(#paint7_linear_6115_32380)"/>
<path d="M57.4123 12.0427V18.9772C52.1253 20.0663 45.4115 22.0239 37.705 25.5325C36.9812 25.8634 36.3402 24.9397 36.8985 24.3745L38.3874 22.8649C45.1289 17.702 51.6015 14.2899 57.4192 12.0427H57.4123Z" fill="url(#paint8_linear_6115_32380)"/>
<path d="M73.3564 42.6964C73.3564 42.6068 73.4323 42.531 73.5219 42.531H76.224C77.7818 42.531 79.0639 43.7993 79.0639 45.3503C79.0639 46.9012 77.7818 48.204 76.2378 48.204H73.9493V51.168C73.9493 51.2577 73.8734 51.3335 73.7494 51.3335H73.5219C73.4323 51.3335 73.3564 51.2577 73.3564 51.168V42.6964ZM76.1964 47.625C77.4303 47.625 78.4711 46.6048 78.4711 45.3365C78.4711 44.0682 77.4303 43.1238 76.1826 43.1238H73.9424V47.625H76.1964Z" fill="#0B1622"/>
<path d="M88.0186 42.696C88.0186 42.6064 88.0944 42.5306 88.184 42.5306H88.4459C88.5355 42.5306 88.6114 42.6064 88.6114 42.696V48.0657C88.6114 49.6856 89.6315 50.8781 91.2997 50.8781C92.9678 50.8781 94.0155 49.6994 94.0155 48.0726V42.6891C94.0155 42.5857 94.0638 42.5237 94.1948 42.5237H94.4429C94.5325 42.5237 94.6083 42.5995 94.6083 42.6891V48.1209C94.6083 50.044 93.2987 51.4502 91.2997 51.4502C89.3007 51.4502 88.0186 50.044 88.0186 48.1209V42.6891V42.696Z" fill="#0B1622"/>
<path d="M104.466 42.6964C104.466 42.6068 104.542 42.531 104.631 42.531H107.306C108.85 42.531 109.911 43.4202 109.911 44.8057C109.911 45.7983 109.312 46.529 108.526 46.8392C109.415 47.0804 110.187 47.7284 110.187 48.9416C110.187 50.3478 109.057 51.3266 107.423 51.3266H104.631C104.542 51.3266 104.466 51.2508 104.466 51.1612V42.6895V42.6964ZM107.471 50.8027C108.691 50.8027 109.546 50.0238 109.546 48.9278C109.546 47.8318 108.588 47.1425 107.395 47.1425H105.045V50.8027H107.471ZM107.395 46.6048C108.574 46.6048 109.27 45.8604 109.27 44.8333C109.27 43.7373 108.512 43.0893 107.306 43.0893H105.059V46.6117H107.395V46.6048Z" fill="#0B1622"/>
<path d="M119.589 42.6964C119.589 42.6068 119.665 42.531 119.754 42.531H120.03C120.106 42.531 120.182 42.6068 120.182 42.6964V50.8027H124.193C124.345 50.8027 124.359 50.8785 124.359 50.9681V51.1956C124.359 51.2852 124.283 51.3335 124.193 51.3335H119.754C119.665 51.3335 119.589 51.2577 119.589 51.168V42.6964Z" fill="#0B1622"/>
<path d="M133.03 42.6964C133.03 42.6068 133.106 42.531 133.196 42.531H133.471C133.561 42.531 133.637 42.6068 133.637 42.6964V51.168C133.637 51.2714 133.547 51.3335 133.465 51.3335H133.203C133.113 51.3335 133.037 51.2577 133.037 51.168V42.6964H133.03Z" fill="#0B1622"/>
<path d="M143.066 50.1615L143.177 50.0098C143.266 49.9064 143.356 49.872 143.452 49.9616C143.576 50.0719 144.507 50.9266 145.775 50.9266C146.919 50.9266 147.885 50.1615 147.885 49.2447C147.885 48.128 146.968 47.6248 145.444 47.1078C143.983 46.5908 143.018 46.0739 143.018 44.6332C143.018 43.6889 143.769 42.4067 145.734 42.4067C146.982 42.4067 147.898 43.0478 147.898 43.0478C147.947 43.0823 148.036 43.1719 147.947 43.3097C147.912 43.358 147.871 43.42 147.85 43.4752C147.774 43.5786 147.698 43.613 147.574 43.5372C147.54 43.5096 146.692 42.9444 145.727 42.9444C144.183 42.9444 143.604 43.9025 143.604 44.6194C143.604 45.6879 144.417 46.1497 145.693 46.5702C147.416 47.163 148.512 47.7627 148.512 49.224C148.512 50.4785 147.216 51.4643 145.768 51.4643C144.321 51.4643 143.266 50.5819 143.101 50.4303C143.025 50.3683 142.963 50.3062 143.066 50.1684V50.1615Z" fill="#0B1622"/>
<path d="M157.715 42.6964C157.715 42.6068 157.791 42.531 157.88 42.531H158.142C158.239 42.531 158.308 42.6068 158.308 42.6964V46.5566H163.953V42.6964C163.953 42.6068 164.029 42.531 164.119 42.531H164.38C164.484 42.531 164.546 42.6068 164.546 42.6964V51.168C164.546 51.2577 164.484 51.3335 164.38 51.3335H164.119C164.029 51.3335 163.953 51.2577 163.953 51.168V47.0804H158.308V51.168C158.308 51.2577 158.246 51.3335 158.142 51.3335H157.88C157.791 51.3335 157.715 51.2577 157.715 51.168V42.6964Z" fill="#0B1622"/>
<path d="M174.499 42.6964C174.499 42.6068 174.575 42.531 174.664 42.531H174.94C175.03 42.531 175.106 42.6068 175.106 42.6964V51.168C175.106 51.2714 175.016 51.3335 174.933 51.3335H174.671C174.582 51.3335 174.506 51.2577 174.506 51.168V42.6964H174.499Z" fill="#0B1622"/>
<path d="M185.06 42.5651C185.06 42.4617 185.149 42.3997 185.246 42.3997H185.459L191.491 50.2578H191.505V42.6892C191.505 42.5996 191.58 42.5237 191.67 42.5237H191.925C192.015 42.5237 192.091 42.5996 192.091 42.6892V51.2849C192.091 51.3951 191.987 51.4503 191.891 51.4503H191.725C191.725 51.4503 191.615 51.4089 185.639 43.5163H185.625V51.1608C185.625 51.2504 185.549 51.3262 185.459 51.3262H185.218C185.129 51.3262 185.053 51.2504 185.053 51.1608V42.5651H185.06Z" fill="#0B1622"/>
<path d="M205.966 42.4067C207.234 42.4067 208.192 42.8341 209.005 43.5786C209.067 43.6406 209.081 43.744 209.019 43.806C208.957 43.8819 208.881 43.9577 208.819 44.0197C208.743 44.1093 208.681 44.0955 208.606 44.0197C207.902 43.3649 206.986 42.9651 205.952 42.9651C203.767 42.9651 202.043 44.7504 202.043 46.9217C202.043 49.093 203.767 50.8852 205.952 50.8852C207.489 50.8852 208.44 50.2924 208.564 50.1959V47.8316H206.414C206.276 47.8316 206.248 47.7833 206.248 47.6662V47.418C206.248 47.3146 206.276 47.2664 206.414 47.2664H208.992C209.081 47.2664 209.157 47.3422 209.157 47.418V50.3338C209.157 50.5199 209.081 50.5888 208.978 50.6578C208.75 50.8094 207.606 51.4643 205.959 51.4643C203.429 51.4643 201.409 49.479 201.409 46.9493C201.409 44.4195 203.436 42.4136 205.959 42.4136L205.966 42.4067Z" fill="#0B1622"/>
<path d="M73.4254 30.8813L84.1166 7.21731C84.22 7.00363 84.3992 6.8313 84.7163 6.8313H85.0679C85.385 6.8313 85.5573 7.01052 85.6676 7.21731L96.2898 30.8813C96.5035 31.3362 96.2209 31.7981 95.6901 31.7981H94.2839C93.9669 31.7981 93.7532 31.5844 93.6842 31.4121L91.0855 25.6081H78.6022L76.0379 31.4121C75.969 31.5913 75.7553 31.7981 75.4382 31.7981H74.032C73.5082 31.7981 73.2255 31.3431 73.4323 30.8813H73.4254ZM90.1274 23.4299C88.4041 19.5973 86.7153 15.7303 84.9921 11.8977H84.7094L79.5741 23.4299H90.1205H90.1274Z" fill="#0B1622"/>
<path d="M105.568 28.1041C105.741 27.8904 105.92 27.6492 106.099 27.4355C106.451 26.9805 106.837 26.6979 107.326 27.1184C107.574 27.3321 110.138 29.7929 113.268 29.7929C116.115 29.7929 117.976 28.0007 117.976 25.9259C117.976 23.4995 115.867 22.0589 111.82 20.3701C107.953 18.6813 105.63 17.1027 105.63 13.091C105.63 10.6991 107.526 6.83203 113.123 6.83203C116.57 6.83203 119.134 8.62423 119.134 8.62423C119.348 8.72763 119.768 9.14811 119.348 9.81674C119.203 10.0304 119.065 10.2717 118.927 10.4854C118.61 10.9748 118.259 11.1195 117.693 10.8025C117.445 10.6646 115.232 9.18257 113.089 9.18257C109.36 9.18257 108.236 11.5745 108.236 13.0496C108.236 15.407 110.028 16.7788 112.985 18.0057C117.735 19.9358 120.788 21.7349 120.788 25.8087C120.788 29.4689 117.307 32.1366 113.192 32.1366C109.077 32.1366 106.23 29.7102 105.775 29.2897C105.493 29.0416 105.141 28.7589 105.561 28.0972L105.568 28.1041Z" fill="#0B1622"/>
<path d="M132.92 7.84514C132.92 7.4936 133.203 7.17651 133.589 7.17651H141.357C145.679 7.17651 149.236 10.692 149.236 14.945C149.236 19.1981 145.686 22.8583 141.392 22.8583H135.588V31.1231C135.588 31.4747 135.271 31.7917 134.919 31.7917H133.582C133.196 31.7917 132.913 31.4747 132.913 31.1231V7.84514H132.92ZM141.185 20.2596C144.066 20.2596 146.527 17.9022 146.527 14.8761C146.527 12.0292 144.066 9.85103 141.185 9.85103H135.594V20.2596H141.185Z" fill="#0B1622"/>
<path d="M160.913 7.84514C160.913 7.4936 161.196 7.17651 161.582 7.17651H175.437C175.823 7.17651 176.105 7.4936 176.105 7.84514V8.86532C176.105 9.21687 175.823 9.53395 175.437 9.53395H163.622V18.1158H173.714C174.065 18.1158 174.382 18.4329 174.382 18.7845V19.8047C174.382 20.1907 174.065 20.4733 173.714 20.4733H163.622V29.4412H175.437C175.823 29.4412 176.105 29.7583 176.105 30.1098V31.13C176.105 31.4815 175.823 31.7986 175.437 31.7986H161.582C161.196 31.7986 160.913 31.4815 160.913 31.13V7.84514Z" fill="#0B1622"/>
<path d="M188.761 7.45912C188.761 7.10757 189.078 6.82495 189.429 6.82495H190.312L206.166 26.5874H206.235V7.84513C206.235 7.49358 206.517 7.1765 206.903 7.1765H208.137C208.489 7.1765 208.806 7.49358 208.806 7.84513V31.5091C208.806 31.8607 208.489 32.1433 208.137 32.1433H207.503L191.366 11.9948H191.332V31.1231C191.332 31.4746 191.049 31.7917 190.663 31.7917H189.436C189.085 31.7917 188.768 31.4746 188.768 31.1231V7.45912H188.761Z" fill="#0B1622"/>
<path d="M275.524 35.1312C274.564 35.1312 273.67 34.9752 272.842 34.6632C272.026 34.3392 271.312 33.8892 270.7 33.3132C270.1 32.7252 269.632 32.0352 269.296 31.2432C268.96 30.4512 268.792 29.5872 268.792 28.6512C268.792 27.7152 268.96 26.8512 269.296 26.0592C269.632 25.2672 270.106 24.5832 270.718 24.0072C271.33 23.4192 272.044 22.9692 272.86 22.6572C273.676 22.3332 274.57 22.1712 275.542 22.1712C276.574 22.1712 277.516 22.3512 278.368 22.7112C279.22 23.0592 279.94 23.5812 280.528 24.2772L279.016 25.6992C278.56 25.2072 278.05 24.8412 277.486 24.6012C276.922 24.3492 276.31 24.2232 275.65 24.2232C274.99 24.2232 274.384 24.3312 273.832 24.5472C273.292 24.7632 272.818 25.0692 272.41 25.4652C272.014 25.8612 271.702 26.3292 271.474 26.8692C271.258 27.4092 271.15 28.0032 271.15 28.6512C271.15 29.2992 271.258 29.8932 271.474 30.4332C271.702 30.9732 272.014 31.4412 272.41 31.8372C272.818 32.2332 273.292 32.5392 273.832 32.7552C274.384 32.9712 274.99 33.0792 275.65 33.0792C276.31 33.0792 276.922 32.9592 277.486 32.7192C278.05 32.4672 278.56 32.0892 279.016 31.5852L280.528 33.0252C279.94 33.7092 279.22 34.2312 278.368 34.5912C277.516 34.9512 276.568 35.1312 275.524 35.1312ZM290.57 35.1312C289.586 35.1312 288.68 34.9692 287.852 34.6452C287.024 34.3212 286.304 33.8712 285.692 33.2952C285.08 32.7072 284.606 32.0232 284.27 31.2432C283.934 30.4512 283.766 29.5872 283.766 28.6512C283.766 27.7152 283.934 26.8572 284.27 26.0772C284.606 25.2852 285.08 24.6012 285.692 24.0252C286.304 23.4372 287.024 22.9812 287.852 22.6572C288.68 22.3332 289.58 22.1712 290.552 22.1712C291.536 22.1712 292.436 22.3332 293.252 22.6572C294.08 22.9812 294.8 23.4372 295.412 24.0252C296.024 24.6012 296.498 25.2852 296.834 26.0772C297.17 26.8572 297.338 27.7152 297.338 28.6512C297.338 29.5872 297.17 30.4512 296.834 31.2432C296.498 32.0352 296.024 32.7192 295.412 33.2952C294.8 33.8712 294.08 34.3212 293.252 34.6452C292.436 34.9692 291.542 35.1312 290.57 35.1312ZM290.552 33.0792C291.188 33.0792 291.776 32.9712 292.316 32.7552C292.856 32.5392 293.324 32.2332 293.72 31.8372C294.116 31.4292 294.422 30.9612 294.638 30.4332C294.866 29.8932 294.98 29.2992 294.98 28.6512C294.98 28.0032 294.866 27.4152 294.638 26.8872C294.422 26.3472 294.116 25.8792 293.72 25.4832C293.324 25.0752 292.856 24.7632 292.316 24.5472C291.776 24.3312 291.188 24.2232 290.552 24.2232C289.916 24.2232 289.328 24.3312 288.788 24.5472C288.26 24.7632 287.792 25.0752 287.384 25.4832C286.988 25.8792 286.676 26.3472 286.448 26.8872C286.232 27.4152 286.124 28.0032 286.124 28.6512C286.124 29.2872 286.232 29.8752 286.448 30.4152C286.676 30.9552 286.988 31.4292 287.384 31.8372C287.78 32.2332 288.248 32.5392 288.788 32.7552C289.328 32.9712 289.916 33.0792 290.552 33.0792ZM307.397 35.1312C305.669 35.1312 304.313 34.6452 303.329 33.6732C302.357 32.7012 301.871 31.2972 301.871 29.4612V22.3512H304.211V29.3712C304.211 30.6672 304.487 31.6092 305.039 32.1972C305.603 32.7852 306.395 33.0792 307.415 33.0792C308.435 33.0792 309.221 32.7852 309.773 32.1972C310.325 31.6092 310.601 30.6672 310.601 29.3712V22.3512H312.905V29.4612C312.905 31.2972 312.413 32.7012 311.429 33.6732C310.457 34.6452 309.113 35.1312 307.397 35.1312ZM318.342 34.9512V22.3512H323.526C324.642 22.3512 325.596 22.5312 326.388 22.8912C327.192 23.2512 327.81 23.7672 328.242 24.4392C328.674 25.1112 328.89 25.9092 328.89 26.8332C328.89 27.7572 328.674 28.5552 328.242 29.2272C327.81 29.8872 327.192 30.3972 326.388 30.7572C325.596 31.1052 324.642 31.2792 323.526 31.2792H319.638L320.682 30.2172V34.9512H318.342ZM326.586 34.9512L323.4 30.3792H325.902L329.106 34.9512H326.586ZM320.682 30.4692L319.638 29.3532H323.418C324.45 29.3532 325.224 29.1312 325.74 28.6872C326.268 28.2432 326.532 27.6252 326.532 26.8332C326.532 26.0292 326.268 25.4112 325.74 24.9792C325.224 24.5472 324.45 24.3312 323.418 24.3312H319.638L320.682 23.1792V30.4692ZM337.574 35.1312C336.59 35.1312 335.648 34.9932 334.748 34.7172C333.848 34.4292 333.134 34.0632 332.606 33.6192L333.416 31.8012C333.92 32.1972 334.544 32.5272 335.288 32.7912C336.032 33.0552 336.794 33.1872 337.574 33.1872C338.234 33.1872 338.768 33.1152 339.176 32.9712C339.584 32.8272 339.884 32.6352 340.076 32.3952C340.268 32.1432 340.364 31.8612 340.364 31.5492C340.364 31.1652 340.226 30.8592 339.95 30.6312C339.674 30.3912 339.314 30.2052 338.87 30.0732C338.438 29.9292 337.952 29.7972 337.412 29.6772C336.884 29.5572 336.35 29.4192 335.81 29.2632C335.282 29.0952 334.796 28.8852 334.352 28.6332C333.92 28.3692 333.566 28.0212 333.29 27.5892C333.014 27.1572 332.876 26.6052 332.876 25.9332C332.876 25.2492 333.056 24.6252 333.416 24.0612C333.788 23.4852 334.346 23.0292 335.09 22.6932C335.846 22.3452 336.8 22.1712 337.952 22.1712C338.708 22.1712 339.458 22.2672 340.202 22.4592C340.946 22.6512 341.594 22.9272 342.146 23.2872L341.408 25.1052C340.844 24.7692 340.262 24.5232 339.662 24.3672C339.062 24.1992 338.486 24.1152 337.934 24.1152C337.286 24.1152 336.758 24.1932 336.35 24.3492C335.954 24.5052 335.66 24.7092 335.468 24.9612C335.288 25.2132 335.198 25.5012 335.198 25.8252C335.198 26.2092 335.33 26.5212 335.594 26.7612C335.87 26.9892 336.224 27.1692 336.656 27.3012C337.1 27.4332 337.592 27.5652 338.132 27.6972C338.672 27.8172 339.206 27.9552 339.734 28.1112C340.274 28.2672 340.76 28.4712 341.192 28.7232C341.636 28.9752 341.99 29.3172 342.254 29.7492C342.53 30.1812 342.668 30.7272 342.668 31.3872C342.668 32.0592 342.482 32.6832 342.11 33.2592C341.75 33.8232 341.192 34.2792 340.436 34.6272C339.68 34.9632 338.726 35.1312 337.574 35.1312ZM349.308 27.5892H355.572V29.5152H349.308V27.5892ZM349.488 32.9892H356.598V34.9512H347.148V22.3512H356.346V24.3132H349.488V32.9892ZM365.273 35.1312C364.289 35.1312 363.347 34.9932 362.447 34.7172C361.547 34.4292 360.833 34.0632 360.305 33.6192L361.115 31.8012C361.619 32.1972 362.243 32.5272 362.987 32.7912C363.731 33.0552 364.493 33.1872 365.273 33.1872C365.933 33.1872 366.467 33.1152 366.875 32.9712C367.283 32.8272 367.583 32.6352 367.775 32.3952C367.967 32.1432 368.063 31.8612 368.063 31.5492C368.063 31.1652 367.925 30.8592 367.649 30.6312C367.373 30.3912 367.013 30.2052 366.569 30.0732C366.137 29.9292 365.651 29.7972 365.111 29.6772C364.583 29.5572 364.049 29.4192 363.509 29.2632C362.981 29.0952 362.495 28.8852 362.051 28.6332C361.619 28.3692 361.265 28.0212 360.989 27.5892C360.713 27.1572 360.575 26.6052 360.575 25.9332C360.575 25.2492 360.755 24.6252 361.115 24.0612C361.487 23.4852 362.045 23.0292 362.789 22.6932C363.545 22.3452 364.499 22.1712 365.651 22.1712C366.407 22.1712 367.157 22.2672 367.901 22.4592C368.645 22.6512 369.293 22.9272 369.845 23.2872L369.107 25.1052C368.543 24.7692 367.961 24.5232 367.361 24.3672C366.761 24.1992 366.185 24.1152 365.633 24.1152C364.985 24.1152 364.457 24.1932 364.049 24.3492C363.653 24.5052 363.359 24.7092 363.167 24.9612C362.987 25.2132 362.897 25.5012 362.897 25.8252C362.897 26.2092 363.029 26.5212 363.293 26.7612C363.569 26.9892 363.923 27.1692 364.355 27.3012C364.799 27.4332 365.291 27.5652 365.831 27.6972C366.371 27.8172 366.905 27.9552 367.433 28.1112C367.973 28.2672 368.459 28.4712 368.891 28.7232C369.335 28.9752 369.689 29.3172 369.953 29.7492C370.229 30.1812 370.367 30.7272 370.367 31.3872C370.367 32.0592 370.181 32.6832 369.809 33.2592C369.449 33.8232 368.891 34.2792 368.135 34.6272C367.379 34.9632 366.425 35.1312 365.273 35.1312Z" fill="#181818"/>
<defs>
<linearGradient id="paint0_linear_6115_32380" x1="-3.48101" y1="59.3429" x2="63.6646" y2="-3.17741" gradientUnits="userSpaceOnUse">
<stop offset="0.15" stop-color="#D4AC70"/>
<stop offset="0.85" stop-color="#F2D384"/>
</linearGradient>
<linearGradient id="paint1_linear_6115_32380" x1="-6.84527" y1="55.7237" x2="60.3003" y2="-6.79661" gradientUnits="userSpaceOnUse">
<stop offset="0.15" stop-color="#D4AC70"/>
<stop offset="0.85" stop-color="#F2D384"/>
</linearGradient>
<linearGradient id="paint2_linear_6115_32380" x1="-15.8129" y1="46.0941" x2="51.3327" y2="-16.4262" gradientUnits="userSpaceOnUse">
<stop offset="0.15" stop-color="#D4AC70"/>
<stop offset="0.85" stop-color="#F2D384"/>
</linearGradient>
<linearGradient id="paint3_linear_6115_32380" x1="-12.497" y1="49.6578" x2="54.6555" y2="-12.8556" gradientUnits="userSpaceOnUse">
<stop offset="0.15" stop-color="#D4AC70"/>
<stop offset="0.85" stop-color="#F2D384"/>
</linearGradient>
<linearGradient id="paint4_linear_6115_32380" x1="-9.189" y1="53.2083" x2="57.9635" y2="-9.31202" gradientUnits="userSpaceOnUse">
<stop offset="0.15" stop-color="#D4AC70"/>
<stop offset="0.85" stop-color="#F2D384"/>
</linearGradient>
<linearGradient id="paint5_linear_6115_32380" x1="-1.92988" y1="61.0039" x2="65.2157" y2="-1.51649" gradientUnits="userSpaceOnUse">
<stop offset="0.15" stop-color="#D4AC70"/>
<stop offset="0.85" stop-color="#F2D384"/>
</linearGradient>
<linearGradient id="paint6_linear_6115_32380" x1="8.99577" y1="72.7428" x2="76.1483" y2="10.2225" gradientUnits="userSpaceOnUse">
<stop offset="0.15" stop-color="#D4AC70"/>
<stop offset="0.85" stop-color="#F2D384"/>
</linearGradient>
<linearGradient id="paint7_linear_6115_32380" x1="5.14181" y1="68.6068" x2="72.2943" y2="6.08651" gradientUnits="userSpaceOnUse">
<stop offset="0.15" stop-color="#D4AC70"/>
<stop offset="0.85" stop-color="#F2D384"/>
</linearGradient>
<linearGradient id="paint8_linear_6115_32380" x1="1.21297" y1="64.382" x2="68.3655" y2="1.86852" gradientUnits="userSpaceOnUse">
<stop offset="0.15" stop-color="#D4AC70"/>
<stop offset="0.85" stop-color="#F2D384"/>
</linearGradient>
</defs>
</svg>
