<svg width="164" height="45" viewBox="0 0 164 45" fill="none" xmlns="http://www.w3.org/2000/svg">
<path d="M154.707 36.4537C154.707 34.5022 156.268 32.9313 158.21 32.9313C159.088 32.9313 159.927 33.2728 160.591 33.8388C160.669 33.9168 160.678 34.0339 160.6 34.112L159.995 34.7462C159.917 34.8242 159.83 34.8242 159.742 34.7462C159.322 34.3754 158.805 34.1803 158.268 34.1803C157.049 34.1803 156.083 35.2243 156.083 36.4439C156.083 37.6538 157.049 38.6783 158.278 38.6783C158.825 38.6783 159.244 38.5124 159.439 38.4344V37.605H158.659C158.551 37.605 158.473 37.527 158.473 37.4294V36.6586C158.473 36.5513 158.551 36.4732 158.659 36.4732H160.532C160.63 36.4732 160.708 36.561 160.708 36.6586V39.1564C160.708 39.2345 160.669 39.2833 160.63 39.3125C160.63 39.3125 159.625 39.9468 158.21 39.9468C156.268 39.9468 154.707 38.4051 154.707 36.4537Z" fill="white"/>
<path d="M142.282 39.6736V33.107C142.282 33.0094 142.37 32.9313 142.467 32.9313H142.711L146.77 37.244H146.78V33.2143C146.78 33.1167 146.858 33.0289 146.965 33.0289H147.863C147.961 33.0289 148.048 33.1167 148.048 33.2143V39.7809C148.048 39.8785 147.961 39.9565 147.863 39.9565H147.629L143.55 35.478H143.541V39.6736C143.541 39.7711 143.462 39.8589 143.355 39.8589H142.467C142.37 39.8589 142.282 39.7711 142.282 39.6736Z" fill="white"/>
<path d="M133.857 39.6736V33.2143C133.857 33.1167 133.945 33.0289 134.042 33.0289H134.95C135.047 33.0289 135.135 33.1167 135.135 33.2143V39.6736C135.135 39.7711 135.047 39.859 134.95 39.859H134.042C133.945 39.859 133.857 39.7711 133.857 39.6736Z" fill="white"/>
<path d="M120.991 39.6736V33.2143C120.991 33.1167 121.079 33.0289 121.177 33.0289H122.084C122.192 33.0289 122.27 33.1167 122.27 33.2143V35.8H125.45V33.2143C125.45 33.1167 125.529 33.0289 125.636 33.0289H126.534C126.631 33.0289 126.719 33.1167 126.719 33.2143V39.6736C126.719 39.7711 126.631 39.859 126.534 39.859H125.636C125.529 39.859 125.45 39.7711 125.45 39.6736V36.9806H122.27V39.6736C122.27 39.7711 122.192 39.859 122.084 39.859H121.177C121.079 39.859 120.991 39.7711 120.991 39.6736Z" fill="white"/>
<path d="M109.985 39.1955C109.898 39.1076 109.849 39.0588 109.937 38.9027L110.288 38.2978C110.366 38.1612 110.532 38.1612 110.62 38.2295C110.668 38.2588 111.459 38.8344 112.093 38.8344C112.6 38.8344 112.981 38.5027 112.981 38.0831C112.981 37.5855 112.561 37.244 111.742 36.9123C110.824 36.5415 109.907 35.9561 109.907 34.8047C109.907 33.9363 110.551 32.9313 112.103 32.9313C113.098 32.9313 113.859 33.4387 114.054 33.5851C114.152 33.6436 114.181 33.8095 114.113 33.9071L113.742 34.4632C113.664 34.5803 113.517 34.6584 113.4 34.5803C113.322 34.5315 112.581 34.0437 112.044 34.0437C111.488 34.0437 111.185 34.4144 111.185 34.7267C111.185 35.1852 111.547 35.4975 112.337 35.8195C113.283 36.2 114.376 36.7659 114.376 38.0246C114.376 39.0296 113.508 39.9565 112.132 39.9565C110.903 39.9565 110.181 39.3808 109.985 39.1955Z" fill="white"/>
<path d="M101.911 39.6736V33.2143C101.911 33.1167 101.999 33.0289 102.097 33.0289H103.004C103.102 33.0289 103.19 33.1167 103.19 33.2143V39.6736C103.19 39.7711 103.102 39.859 103.004 39.859H102.097C101.999 39.859 101.911 39.7711 101.911 39.6736Z" fill="white"/>
<path d="M91.6188 39.6736V33.2143C91.6188 33.1167 91.6968 33.0289 91.8042 33.0289H92.7018C92.7994 33.0289 92.8872 33.1167 92.8872 33.2143V38.6881H95.3753C95.4826 38.6881 95.5607 38.7759 95.5607 38.8735V39.6736C95.5607 39.7711 95.4826 39.859 95.3753 39.859H91.8042C91.6968 39.859 91.6188 39.7711 91.6188 39.6736Z" fill="white"/>
<path d="M80.2303 39.6736V33.2143C80.2303 33.1167 80.3084 33.0289 80.4157 33.0289H82.6501C83.8112 33.0289 84.7089 33.8095 84.7089 34.834C84.7089 35.5853 84.0942 36.1707 83.6356 36.3854C84.1527 36.5513 84.904 37.0782 84.904 37.9758C84.904 39.0686 83.9673 39.859 82.777 39.859H80.4157C80.3084 39.859 80.2303 39.7711 80.2303 39.6736ZM81.489 35.8975H82.533C83.0307 35.8975 83.3722 35.5073 83.3722 35.0194C83.3722 34.5315 83.0307 34.19 82.533 34.19H81.489V35.8975ZM81.489 38.7076H82.6696C83.1575 38.7076 83.5478 38.3271 83.5478 37.8197C83.5478 37.3319 83.0599 36.9708 82.5526 36.9708H81.489V38.7076Z" fill="white"/>
<path d="M67.7533 37.2733V33.2143C67.7533 33.1167 67.8411 33.0289 67.9387 33.0289H68.8656C68.9729 33.0289 69.051 33.1167 69.051 33.2143V37.205C69.051 38.0344 69.6169 38.6881 70.4658 38.6881C71.3147 38.6881 71.8903 38.0344 71.8903 37.2148V33.2143C71.8903 33.1167 71.9684 33.0289 72.0757 33.0289H73.0027C73.1002 33.0289 73.188 33.1167 73.188 33.2143V37.2733C73.188 38.7564 72.0074 39.9565 70.4658 39.9565C68.9339 39.9565 67.7533 38.7564 67.7533 37.2733Z" fill="white"/>
<path d="M56.7102 39.6736V33.2143C56.7102 33.1167 56.7883 33.0289 56.8956 33.0289H59.1885C60.3887 33.0289 61.3741 34.0046 61.3741 35.1853C61.3741 36.3952 60.3887 37.3806 59.1983 37.3806H57.9786V39.6736C57.9786 39.7711 57.8908 39.859 57.7933 39.859H56.8956C56.7883 39.859 56.7102 39.7711 56.7102 39.6736ZM57.9786 36.1903H59.1105C59.6569 36.1903 60.1155 35.7512 60.1155 35.1755C60.1155 34.6389 59.6569 34.2291 59.1105 34.2291H57.9786V36.1903Z" fill="white"/>
<path d="M145.592 24.3777V5.99529C145.592 5.86189 145.645 5.74627 145.752 5.64845C145.859 5.55062 145.979 5.50171 146.112 5.50171H146.793L159.119 20.8559H159.172V6.28876C159.172 6.15536 159.221 6.03531 159.319 5.92859C159.417 5.82187 159.541 5.76851 159.692 5.76851H160.639C160.773 5.76851 160.893 5.82187 161 5.92859C161.106 6.03531 161.16 6.15536 161.16 6.28876V24.6845C161.16 24.8268 161.106 24.9424 161 25.0313C160.893 25.1203 160.773 25.1647 160.639 25.1647H160.146L147.606 9.51702H147.58V24.3777C147.58 24.5111 147.531 24.6311 147.433 24.7379C147.335 24.8446 147.21 24.8979 147.059 24.8979H146.112C145.979 24.8979 145.859 24.8446 145.752 24.7379C145.645 24.6311 145.592 24.5111 145.592 24.3777Z" fill="white"/>
<path d="M123.96 24.3777V6.28875C123.96 6.15535 124.009 6.03529 124.107 5.92857C124.204 5.82185 124.329 5.76849 124.48 5.76849H135.245C135.397 5.76849 135.521 5.82185 135.619 5.92857C135.717 6.03529 135.766 6.15535 135.766 6.28875V7.08914C135.766 7.22254 135.717 7.3426 135.619 7.44932C135.521 7.55604 135.397 7.6094 135.245 7.6094H126.068V14.266H133.898C134.031 14.266 134.152 14.3194 134.258 14.4261C134.365 14.5328 134.418 14.6529 134.418 14.7863V15.5867C134.427 15.7379 134.378 15.8624 134.272 15.9602C134.165 16.058 134.04 16.1069 133.898 16.1069H126.068V23.0704H135.245C135.397 23.0615 135.521 23.1104 135.619 23.2171C135.717 23.3238 135.766 23.4483 135.766 23.5906V24.3777C135.766 24.5111 135.717 24.6311 135.619 24.7378C135.521 24.8446 135.397 24.8979 135.245 24.8979H124.48C124.329 24.8979 124.204 24.8446 124.107 24.7378C124.009 24.6311 123.96 24.5111 123.96 24.3777Z" fill="white"/>
<path d="M104.302 15.9335H108.638C109.767 15.9335 110.741 15.5289 111.559 14.7196C112.377 13.9103 112.786 12.9409 112.786 11.8115C112.786 10.682 112.377 9.73934 111.559 8.98341C110.741 8.22748 109.767 7.84952 108.638 7.84952H104.302V15.9335ZM102.221 24.3777V6.28875C102.221 6.15535 102.27 6.03529 102.368 5.92857C102.466 5.82185 102.59 5.76849 102.741 5.76849H108.771C110.452 5.76849 111.893 6.36434 113.093 7.55604C114.294 8.74774 114.894 10.1751 114.894 11.8382C114.885 13.5012 114.285 14.9375 113.093 16.1469C111.902 17.3564 110.47 17.9612 108.798 17.9612H104.302V24.3777C104.302 24.5111 104.249 24.6311 104.142 24.7378C104.035 24.8446 103.915 24.8979 103.782 24.8979H102.741C102.59 24.8979 102.466 24.8446 102.368 24.7378C102.27 24.6311 102.221 24.5111 102.221 24.3777Z" fill="white"/>
<path d="M86.9389 23.3372C88.015 23.3372 88.8955 23.0437 89.5802 22.4567C90.265 21.8698 90.6074 21.145 90.6074 20.2823C90.6074 19.4108 90.225 18.6549 89.4602 18.0145C88.6954 17.3742 87.4814 16.7072 85.8184 16.0136C84.9913 15.6489 84.311 15.311 83.7774 14.9997C83.2438 14.6974 82.7547 14.3238 82.31 13.8792C81.4473 13.0432 81.016 11.8693 81.016 10.3574C81.016 9.49479 81.2828 8.65882 81.8164 7.84953C82.848 6.28432 84.52 5.50171 86.8322 5.50171C87.6237 5.50171 88.4108 5.61732 89.1934 5.84855C89.976 6.07977 90.554 6.311 90.9276 6.54222L91.5012 6.88906C91.6702 6.97799 91.7724 7.11139 91.808 7.28926C91.8258 7.48491 91.7991 7.63609 91.728 7.74281C91.6568 7.84953 91.5857 7.96515 91.5145 8.08965C91.4434 8.21416 91.3856 8.29864 91.3411 8.34311C91.0921 8.73441 90.7275 8.78777 90.2472 8.50319C90.1583 8.44983 90.0694 8.39647 89.9804 8.34311C89.9004 8.28975 89.7803 8.22305 89.6203 8.14301C89.4602 8.06297 89.3045 7.98738 89.1534 7.91623C88.3263 7.52493 87.557 7.32928 86.8456 7.32928C85.4404 7.32928 84.4533 7.66722 83.8841 8.34311C83.3149 9.019 83.0303 9.73491 83.0303 10.4908C83.0303 11.2468 83.3372 11.9227 83.9508 12.5185C84.5644 13.1143 85.3871 13.6257 86.4187 14.0526C87.4503 14.4884 88.2418 14.8396 88.7932 15.1064C90.1805 15.7823 91.1944 16.516 91.8347 17.3075C92.475 18.099 92.7952 19.1395 92.7952 20.4291C92.7952 21.7008 92.2171 22.808 91.061 23.7507C89.9048 24.6934 88.4597 25.1647 86.7255 25.1647C84.9913 25.1647 83.3327 24.5956 81.7497 23.4572C81.305 23.1371 81.0427 22.9281 80.9627 22.8302C80.767 22.5901 80.767 22.3233 80.9627 22.0299C81.0071 21.9854 81.0738 21.9009 81.1628 21.7764C81.2517 21.6519 81.3184 21.563 81.3629 21.5096C81.683 21.0738 82.0032 20.9938 82.3233 21.2695C83.933 22.6479 85.4715 23.3372 86.9389 23.3372Z" fill="white"/>
<path d="M68.9621 18.4014L64.9735 9.43698H64.76L60.7714 18.4014H68.9621ZM56.4493 24.8979C56.2447 24.8979 56.098 24.8268 56.009 24.6845C55.9201 24.5422 55.9112 24.3777 55.9824 24.1909L64.2931 5.79519C64.391 5.59953 64.5466 5.50171 64.76 5.50171H65.0268C65.2403 5.50171 65.3959 5.59953 65.4937 5.79519L73.7378 24.1909C73.8178 24.3777 73.8134 24.5422 73.7244 24.6845C73.6355 24.8268 73.4888 24.8979 73.2842 24.8979H72.1904C71.9591 24.8979 71.8035 24.7957 71.7235 24.5911L69.6958 20.0956H59.9977L58.01 24.5911C57.93 24.7957 57.7744 24.8979 57.5431 24.8979H56.4493Z" fill="white"/>
<path d="M13.835 38.9352C9.58493 38.9352 6.12692 35.4779 6.12692 31.2272V2.40833C2.43145 4.89242 0 9.11135 0 13.8985V31.2272C0 38.8681 6.19406 45.0628 13.835 45.0628H31.1636C35.9509 45.0628 40.1695 42.6307 42.6535 38.9352H13.835Z" fill="url(#paint0_linear_4701_3074)"/>
<path d="M42.6643 0.0628052H39.2274C38.8754 1.03058 38.4818 2.02815 38.0416 3.05338C37.7917 3.63465 38.5222 4.14113 38.9728 3.69673L42.6643 0.0628052Z" fill="url(#paint1_linear_4701_3074)"/>
<path d="M17.2605 0.0628052H13.8352C12.3891 0.0628052 10.9951 0.285673 9.68494 0.697437V28.6327C9.68494 29.2849 10.5911 29.4478 10.8163 28.8365C15.6344 15.7732 17.0135 6.15957 17.2605 0.0628052Z" fill="url(#paint2_linear_4701_3074)"/>
<path d="M27.0567 0.0628052H20.8512C20.6527 5.3501 19.6417 13.0358 16.513 23.1291C16.3707 23.588 16.9947 23.8839 17.2469 23.4748C22.8883 14.3247 25.6974 6.30124 27.0567 0.0628052Z" fill="url(#paint3_linear_4701_3074)"/>
<path d="M36.0732 0.0628052H30.7011C29.8581 4.16061 28.3401 9.35977 25.6265 15.3284C25.3714 15.8895 26.0836 16.3856 26.5228 15.9535L27.6932 14.8011C31.693 9.58041 34.3365 4.56864 36.0732 0.0628052Z" fill="url(#paint4_linear_4701_3074)"/>
<path d="M44.467 2.79803V6.23515C43.499 6.58724 42.5012 6.98077 41.476 7.42099C40.8945 7.67081 40.3885 6.94084 40.8327 6.48959L44.467 2.79803Z" fill="url(#paint5_linear_4701_3074)"/>
<path d="M44.4671 28.2018V31.6276C44.4671 33.0737 44.2441 34.4679 43.8326 35.7785H15.8966C15.2452 35.7785 15.0821 34.8717 15.6941 34.6464C28.7568 29.8283 38.3704 28.4493 44.4671 28.2018Z" fill="url(#paint6_linear_4701_3074)"/>
<path d="M44.4671 18.4062V24.6115C39.1795 24.8105 31.4941 25.8212 21.4007 28.9497C20.9418 29.0923 20.6453 28.468 21.0546 28.2164C30.2053 22.5745 38.2284 19.7653 44.4671 18.4062Z" fill="url(#paint7_linear_4701_3074)"/>
<path d="M44.4669 9.38892V14.7613C40.3691 15.6045 35.1698 17.1223 29.2014 19.8359C28.6403 20.0909 28.1442 19.3788 28.5762 18.9392L29.7287 17.7692C34.9491 13.7694 39.9612 11.1257 44.4669 9.38892Z" fill="url(#paint8_linear_4701_3074)"/>
<defs>
<linearGradient id="paint0_linear_4701_3074" x1="49.3105" y1="-2.39935" x2="-2.69709" y2="-2.39935" gradientUnits="userSpaceOnUse">
<stop offset="0.115152" stop-color="#C3935C"/>
<stop offset="0.890909" stop-color="#EFC16D"/>
</linearGradient>
<linearGradient id="paint1_linear_4701_3074" x1="46.7042" y1="-5.19977" x2="-5.30394" y2="-5.19977" gradientUnits="userSpaceOnUse">
<stop offset="0.115152" stop-color="#C3935C"/>
<stop offset="0.890909" stop-color="#EFC16D"/>
</linearGradient>
<linearGradient id="paint2_linear_4701_3074" x1="39.7581" y1="-12.6596" x2="-12.2494" y2="-12.6596" gradientUnits="userSpaceOnUse">
<stop offset="0.115152" stop-color="#C3935C"/>
<stop offset="0.890909" stop-color="#EFC16D"/>
</linearGradient>
<linearGradient id="paint3_linear_4701_3074" x1="42.3311" y1="-9.89619" x2="-9.67651" y2="-9.89619" gradientUnits="userSpaceOnUse">
<stop offset="0.115152" stop-color="#C3935C"/>
<stop offset="0.890909" stop-color="#EFC16D"/>
</linearGradient>
<linearGradient id="paint4_linear_4701_3074" x1="44.8902" y1="-7.14734" x2="-7.11799" y2="-7.14734" gradientUnits="userSpaceOnUse">
<stop offset="0.115152" stop-color="#C3935C"/>
<stop offset="0.890909" stop-color="#EFC16D"/>
</linearGradient>
<linearGradient id="paint5_linear_4701_3074" x1="50.5112" y1="-1.11083" x2="-1.49927" y2="-1.11083" gradientUnits="userSpaceOnUse">
<stop offset="0.115152" stop-color="#C3935C"/>
<stop offset="0.890909" stop-color="#EFC16D"/>
</linearGradient>
<linearGradient id="paint6_linear_4701_3074" x1="58.976" y1="7.98077" x2="6.96753" y2="7.98077" gradientUnits="userSpaceOnUse">
<stop offset="0.115152" stop-color="#C3935C"/>
<stop offset="0.890909" stop-color="#EFC16D"/>
</linearGradient>
<linearGradient id="paint7_linear_4701_3074" x1="55.9931" y1="4.77766" x2="3.98519" y2="4.77766" gradientUnits="userSpaceOnUse">
<stop offset="0.115152" stop-color="#C3935C"/>
<stop offset="0.890909" stop-color="#EFC16D"/>
</linearGradient>
<linearGradient id="paint8_linear_4701_3074" x1="52.9487" y1="1.50753" x2="0.940226" y2="1.50753" gradientUnits="userSpaceOnUse">
<stop offset="0.115152" stop-color="#C3935C"/>
<stop offset="0.890909" stop-color="#EFC16D"/>
</linearGradient>
</defs>
</svg>
