<svg width="165" height="45" viewBox="0 0 165 45" fill="white" xmlns="http://www.w3.org/2000/svg">
<path d="M154.707 36.2739C154.707 34.3225 156.268 32.7516 158.21 32.7516C159.088 32.7516 159.927 33.0931 160.591 33.659C160.669 33.7371 160.678 33.8542 160.6 33.9322L159.995 34.5664C159.917 34.6445 159.83 34.6445 159.742 34.5664C159.322 34.1957 158.805 34.0005 158.268 34.0005C157.049 34.0005 156.083 35.0445 156.083 36.2642C156.083 37.4741 157.049 38.4986 158.278 38.4986C158.825 38.4986 159.244 38.3327 159.439 38.2546V37.4253H158.659C158.551 37.4253 158.473 37.3472 158.473 37.2497V36.4788C158.473 36.3715 158.551 36.2934 158.659 36.2934H160.532C160.63 36.2934 160.708 36.3813 160.708 36.4788V38.9767C160.708 39.0547 160.669 39.1035 160.63 39.1328C160.63 39.1328 159.625 39.767 158.21 39.767C156.268 39.767 154.707 38.2254 154.707 36.2739Z" fill="white"/>
<path d="M142.282 39.4938V32.9272C142.282 32.8296 142.37 32.7516 142.467 32.7516H142.711L146.77 37.0643H146.78V33.0345C146.78 32.937 146.858 32.8492 146.965 32.8492H147.863C147.961 32.8492 148.048 32.937 148.048 33.0345V39.6011C148.048 39.6987 147.961 39.7768 147.863 39.7768H147.629L143.55 35.2982H143.541V39.4938C143.541 39.5914 143.462 39.6792 143.355 39.6792H142.467C142.37 39.6792 142.282 39.5914 142.282 39.4938Z" fill="white"/>
<path d="M133.857 39.4938V33.0346C133.857 32.937 133.945 32.8492 134.042 32.8492H134.95C135.047 32.8492 135.135 32.937 135.135 33.0346V39.4938C135.135 39.5914 135.047 39.6792 134.95 39.6792H134.042C133.945 39.6792 133.857 39.5914 133.857 39.4938Z" fill="white"/>
<path d="M120.991 39.4938V33.0346C120.991 32.937 121.079 32.8492 121.177 32.8492H122.084C122.191 32.8492 122.27 32.937 122.27 33.0346V35.6202H125.45V33.0346C125.45 32.937 125.528 32.8492 125.636 32.8492H126.533C126.631 32.8492 126.719 32.937 126.719 33.0346V39.4938C126.719 39.5914 126.631 39.6792 126.533 39.6792H125.636C125.528 39.6792 125.45 39.5914 125.45 39.4938V36.8008H122.27V39.4938C122.27 39.5914 122.191 39.6792 122.084 39.6792H121.177C121.079 39.6792 120.991 39.5914 120.991 39.4938Z" fill="white"/>
<path d="M109.985 39.0157C109.898 38.9279 109.849 38.8791 109.937 38.723L110.288 38.118C110.366 37.9814 110.532 37.9814 110.62 38.0497C110.668 38.079 111.459 38.6547 112.093 38.6547C112.6 38.6547 112.981 38.3229 112.981 37.9034C112.981 37.4058 112.561 37.0643 111.742 36.7325C110.824 36.3617 109.907 35.7763 109.907 34.625C109.907 33.7566 110.551 32.7516 112.103 32.7516C113.098 32.7516 113.859 33.259 114.054 33.4053C114.152 33.4639 114.181 33.6297 114.113 33.7273L113.742 34.2835C113.664 34.4006 113.517 34.4786 113.4 34.4006C113.322 34.3518 112.581 33.8639 112.044 33.8639C111.488 33.8639 111.185 34.2347 111.185 34.5469C111.185 35.0055 111.546 35.3177 112.337 35.6397C113.283 36.0202 114.376 36.5862 114.376 37.8448C114.376 38.8498 113.508 39.7768 112.132 39.7768C110.902 39.7768 110.18 39.2011 109.985 39.0157Z" fill="white"/>
<path d="M101.911 39.4938V33.0346C101.911 32.937 101.999 32.8492 102.097 32.8492H103.004C103.102 32.8492 103.19 32.937 103.19 33.0346V39.4938C103.19 39.5914 103.102 39.6792 103.004 39.6792H102.097C101.999 39.6792 101.911 39.5914 101.911 39.4938Z" fill="white"/>
<path d="M91.6188 39.4938V33.0346C91.6188 32.937 91.6968 32.8492 91.8042 32.8492H92.7018C92.7994 32.8492 92.8872 32.937 92.8872 33.0346V38.5084H95.3753C95.4826 38.5084 95.5607 38.5962 95.5607 38.6937V39.4938C95.5607 39.5914 95.4826 39.6792 95.3753 39.6792H91.8042C91.6968 39.6792 91.6188 39.5914 91.6188 39.4938Z" fill="white"/>
<path d="M80.2303 39.4938V33.0346C80.2303 32.937 80.3084 32.8492 80.4157 32.8492H82.6501C83.8112 32.8492 84.7089 33.6298 84.7089 34.6543C84.7089 35.4056 84.0942 35.991 83.6356 36.2057C84.1527 36.3715 84.904 36.8984 84.904 37.7961C84.904 38.8889 83.9673 39.6792 82.7769 39.6792H80.4157C80.3084 39.6792 80.2303 39.5914 80.2303 39.4938ZM81.489 35.7178H82.533C83.0306 35.7178 83.3721 35.3275 83.3721 34.8396C83.3721 34.3518 83.0306 34.0103 82.533 34.0103H81.489V35.7178ZM81.489 38.5279H82.6696C83.1575 38.5279 83.5478 38.1473 83.5478 37.64C83.5478 37.1521 83.0599 36.7911 82.5525 36.7911H81.489V38.5279Z" fill="white"/>
<path d="M67.7533 37.0936V33.0346C67.7533 32.937 67.8411 32.8492 67.9387 32.8492H68.8656C68.973 32.8492 69.051 32.937 69.051 33.0346V37.0253C69.051 37.8546 69.6169 38.5084 70.4658 38.5084C71.3147 38.5084 71.8904 37.8546 71.8904 37.035V33.0346C71.8904 32.937 71.9684 32.8492 72.0757 32.8492H73.0027C73.1002 32.8492 73.1881 32.937 73.1881 33.0346V37.0936C73.1881 38.5767 72.0074 39.7768 70.4658 39.7768C68.9339 39.7768 67.7533 38.5767 67.7533 37.0936Z" fill="white"/>
<path d="M56.7102 39.4938V33.0346C56.7102 32.937 56.7882 32.8492 56.8955 32.8492H59.1885C60.3886 32.8492 61.3741 33.8249 61.3741 35.0055C61.3741 36.2154 60.3886 37.2009 59.1982 37.2009H57.9786V39.4938C57.9786 39.5914 57.8908 39.6792 57.7932 39.6792H56.8955C56.7882 39.6792 56.7102 39.5914 56.7102 39.4938ZM57.9786 36.0105H59.1104C59.6568 36.0105 60.1154 35.5714 60.1154 34.9958C60.1154 34.4591 59.6568 34.0493 59.1104 34.0493H57.9786V36.0105Z" fill="white"/>
<path d="M145.592 24.1979V5.81554C145.592 5.68214 145.645 5.56653 145.752 5.4687C145.859 5.37087 145.979 5.32196 146.112 5.32196H146.792L159.118 20.6762H159.172V6.10901C159.172 5.97562 159.221 5.85556 159.319 5.74884C159.416 5.64212 159.541 5.58876 159.692 5.58876H160.639C160.773 5.58876 160.893 5.64212 160.999 5.74884C161.106 5.85556 161.16 5.97562 161.16 6.10901V24.5047C161.16 24.647 161.106 24.7627 160.999 24.8516C160.893 24.9405 160.773 24.985 160.639 24.985H160.146L147.606 9.33727H147.579V24.1979C147.579 24.3313 147.531 24.4514 147.433 24.5581C147.335 24.6648 147.21 24.7182 147.059 24.7182H146.112C145.979 24.7182 145.859 24.6648 145.752 24.5581C145.645 24.4514 145.592 24.3313 145.592 24.1979Z" fill="white"/>
<path d="M123.96 24.1979V6.109C123.96 5.9756 124.009 5.85554 124.107 5.74882C124.204 5.6421 124.329 5.58875 124.48 5.58875H135.245C135.397 5.58875 135.521 5.6421 135.619 5.74882C135.717 5.85554 135.766 5.9756 135.766 6.109V6.9094C135.766 7.0428 135.717 7.16285 135.619 7.26957C135.521 7.37629 135.397 7.42965 135.245 7.42965H126.068V14.0863H133.898C134.031 14.0863 134.152 14.1396 134.258 14.2463C134.365 14.3531 134.418 14.4731 134.418 14.6065V15.4069C134.427 15.5581 134.378 15.6826 134.272 15.7804C134.165 15.8783 134.04 15.9272 133.898 15.9272H126.068V22.8906H135.245C135.397 22.8817 135.521 22.9306 135.619 23.0373C135.717 23.1441 135.766 23.2686 135.766 23.4109V24.1979C135.766 24.3313 135.717 24.4514 135.619 24.5581C135.521 24.6648 135.397 24.7182 135.245 24.7182H124.48C124.329 24.7182 124.204 24.6648 124.107 24.5581C124.009 24.4514 123.96 24.3313 123.96 24.1979Z" fill="white"/>
<path d="M104.302 15.7538H108.638C109.767 15.7538 110.741 15.3491 111.559 14.5398C112.377 13.7305 112.786 12.7612 112.786 11.6317C112.786 10.5023 112.377 9.55959 111.559 8.80366C110.741 8.04773 109.767 7.66977 108.638 7.66977H104.302V15.7538ZM102.221 24.1979V6.109C102.221 5.9756 102.27 5.85554 102.368 5.74882C102.466 5.6421 102.59 5.58875 102.741 5.58875H108.771C110.452 5.58875 111.893 6.18459 113.093 7.37629C114.294 8.56799 114.894 9.99536 114.894 11.6584C114.885 13.3214 114.285 14.7577 113.093 15.9672C111.901 17.1767 110.47 17.7814 108.798 17.7814H104.302V24.1979C104.302 24.3313 104.249 24.4514 104.142 24.5581C104.035 24.6648 103.915 24.7182 103.782 24.7182H102.741C102.59 24.7182 102.466 24.6648 102.368 24.5581C102.27 24.4514 102.221 24.3313 102.221 24.1979Z" fill="white"/>
<path d="M86.9389 23.1574C88.015 23.1574 88.8954 22.8639 89.5802 22.277C90.265 21.69 90.6074 20.9652 90.6074 20.1026C90.6074 19.231 90.225 18.4751 89.4602 17.8348C88.6953 17.1945 87.4814 16.5275 85.8184 15.8338C84.9913 15.4692 84.311 15.1312 83.7774 14.82C83.2438 14.5176 82.7546 14.1441 82.31 13.6994C81.4473 12.8635 81.016 11.6895 81.016 10.1777C81.016 9.31504 81.2828 8.47907 81.8164 7.66978C82.848 6.10457 84.5199 5.32196 86.8322 5.32196C87.6237 5.32196 88.4108 5.43757 89.1934 5.6688C89.976 5.90002 90.554 6.13125 90.9275 6.36247L91.5012 6.70931C91.6701 6.79824 91.7724 6.93164 91.808 7.10951C91.8258 7.30516 91.7991 7.45635 91.7279 7.56307C91.6568 7.66978 91.5857 7.7854 91.5145 7.9099C91.4434 8.03441 91.3856 8.11889 91.3411 8.16336C91.0921 8.55466 90.7275 8.60802 90.2472 8.32344C90.1583 8.27008 90.0693 8.21672 89.9804 8.16336C89.9004 8.11 89.7803 8.0433 89.6202 7.96326C89.4602 7.88322 89.3045 7.80763 89.1533 7.73648C88.3263 7.34518 87.557 7.14953 86.8455 7.14953C85.4404 7.14953 84.4532 7.48747 83.8841 8.16336C83.3149 8.83925 83.0303 9.55516 83.0303 10.3111C83.0303 11.067 83.3371 11.7429 83.9508 12.3388C84.5644 12.9346 85.387 13.446 86.4187 13.8728C87.4503 14.3086 88.2418 14.6599 88.7932 14.9267C90.1805 15.6026 91.1943 16.3363 91.8347 17.1278C92.475 17.9193 92.7951 18.9598 92.7951 20.2493C92.7951 21.5211 92.2171 22.6283 91.0609 23.571C89.9048 24.5136 88.4597 24.985 86.7255 24.985C84.9913 24.985 83.3327 24.4158 81.7497 23.2775C81.305 22.9573 81.0427 22.7483 80.9626 22.6505C80.767 22.4104 80.767 22.1436 80.9626 21.8501C81.0071 21.8056 81.0738 21.7212 81.1627 21.5966C81.2517 21.4721 81.3184 21.3832 81.3628 21.3298C81.683 20.8941 82.0032 20.814 82.3233 21.0897C83.933 22.4682 85.4715 23.1574 86.9389 23.1574Z" fill="white"/>
<path d="M68.9621 18.2217L64.9734 9.25723H64.76L60.7714 18.2217H68.9621ZM56.4492 24.7182C56.2447 24.7182 56.0979 24.647 56.009 24.5047C55.9201 24.3625 55.9112 24.1979 55.9823 24.0112L64.2931 5.61544C64.3909 5.41979 64.5465 5.32196 64.76 5.32196H65.0268C65.2402 5.32196 65.3959 5.41979 65.4937 5.61544L73.7377 24.0112C73.8178 24.1979 73.8133 24.3625 73.7244 24.5047C73.6355 24.647 73.4887 24.7182 73.2842 24.7182H72.1903C71.9591 24.7182 71.8035 24.6159 71.7234 24.4114L69.6958 19.9158H59.9976L58.01 24.4114C57.93 24.6159 57.7743 24.7182 57.5431 24.7182H56.4492Z" fill="white"/>
<path d="M13.835 38.8724C9.58493 38.8724 6.12692 35.4151 6.12692 31.1644V2.34552C2.43145 4.82962 0 9.04855 0 13.8357V31.1644C0 38.8053 6.19406 45 13.835 45H31.1636C35.9509 45 40.1695 42.5679 42.6535 38.8724H13.835Z" fill="url(#paint0_linear_4761_410)"/>
<path d="M42.6642 0H39.2273C38.8753 0.967777 38.4818 1.96535 38.0416 2.99058C37.7917 3.57185 38.5222 4.07833 38.9727 3.63392L42.6642 0Z" fill="url(#paint1_linear_4761_410)"/>
<path d="M17.2605 0H13.8352C12.389 0 10.9951 0.222868 9.68489 0.634632V28.5699C9.68489 29.222 10.591 29.385 10.8163 28.7737C15.6344 15.7104 17.0135 6.09677 17.2605 0Z" fill="url(#paint2_linear_4761_410)"/>
<path d="M27.0567 0H20.8513C20.6528 5.28729 19.6418 12.973 16.5131 23.0663C16.3707 23.5252 16.9948 23.8211 17.247 23.412C22.8883 14.2619 25.6975 6.23844 27.0567 0Z" fill="url(#paint3_linear_4761_410)"/>
<path d="M36.0732 0H30.701C29.8581 4.0978 28.34 9.29696 25.6265 15.2656C25.3713 15.8267 26.0836 16.3228 26.5228 15.8907L27.6931 14.7383C31.6929 9.51761 34.3365 4.50583 36.0732 0Z" fill="url(#paint4_linear_4761_410)"/>
<path d="M44.467 2.73523V6.17234C43.499 6.52443 42.5012 6.91796 41.476 7.35818C40.8945 7.608 40.3885 6.87803 40.8327 6.42678L44.467 2.73523Z" fill="url(#paint5_linear_4761_410)"/>
<path d="M44.4671 28.139V31.5648C44.4671 33.0109 44.244 34.4051 43.8325 35.7157H15.8966C15.2451 35.7157 15.0821 34.8089 15.6941 34.5836C28.7567 29.7655 38.3704 28.3865 44.4671 28.139Z" fill="url(#paint6_linear_4761_410)"/>
<path d="M44.4671 18.3434V24.5487C39.1796 24.7477 31.4942 25.7584 21.4008 28.8869C20.9419 29.0295 20.6454 28.4052 21.0547 28.1536C30.2053 22.5117 38.2285 19.7025 44.4671 18.3434Z" fill="url(#paint7_linear_4761_410)"/>
<path d="M44.4669 9.32611V14.6985C40.3691 15.5417 35.1698 17.0595 29.2014 19.7731C28.6403 20.0281 28.1442 19.316 28.5762 18.8764L29.7287 17.7064C34.9491 13.7066 39.9612 11.0629 44.4669 9.32611Z" fill="url(#paint8_linear_4761_410)"/>
<defs>
<linearGradient id="paint0_linear_4761_410" x1="49.3105" y1="-2.46215" x2="-2.69709" y2="-2.46215" gradientUnits="userSpaceOnUse">
<stop offset="0.115152" stop-color="#C3935C"/>
<stop offset="0.890909" stop-color="#EFC16D"/>
</linearGradient>
<linearGradient id="paint1_linear_4761_410" x1="46.7041" y1="-5.26258" x2="-5.30399" y2="-5.26258" gradientUnits="userSpaceOnUse">
<stop offset="0.115152" stop-color="#C3935C"/>
<stop offset="0.890909" stop-color="#EFC16D"/>
</linearGradient>
<linearGradient id="paint2_linear_4761_410" x1="39.758" y1="-12.7224" x2="-12.2494" y2="-12.7224" gradientUnits="userSpaceOnUse">
<stop offset="0.115152" stop-color="#C3935C"/>
<stop offset="0.890909" stop-color="#EFC16D"/>
</linearGradient>
<linearGradient id="paint3_linear_4761_410" x1="42.3311" y1="-9.95899" x2="-9.67648" y2="-9.95899" gradientUnits="userSpaceOnUse">
<stop offset="0.115152" stop-color="#C3935C"/>
<stop offset="0.890909" stop-color="#EFC16D"/>
</linearGradient>
<linearGradient id="paint4_linear_4761_410" x1="44.8902" y1="-7.21015" x2="-7.11802" y2="-7.21015" gradientUnits="userSpaceOnUse">
<stop offset="0.115152" stop-color="#C3935C"/>
<stop offset="0.890909" stop-color="#EFC16D"/>
</linearGradient>
<linearGradient id="paint5_linear_4761_410" x1="50.5113" y1="-1.17364" x2="-1.49925" y2="-1.17364" gradientUnits="userSpaceOnUse">
<stop offset="0.115152" stop-color="#C3935C"/>
<stop offset="0.890909" stop-color="#EFC16D"/>
</linearGradient>
<linearGradient id="paint6_linear_4761_410" x1="58.9759" y1="7.91797" x2="6.96748" y2="7.91797" gradientUnits="userSpaceOnUse">
<stop offset="0.115152" stop-color="#C3935C"/>
<stop offset="0.890909" stop-color="#EFC16D"/>
</linearGradient>
<linearGradient id="paint7_linear_4761_410" x1="55.9931" y1="4.71485" x2="3.98523" y2="4.71485" gradientUnits="userSpaceOnUse">
<stop offset="0.115152" stop-color="#C3935C"/>
<stop offset="0.890909" stop-color="#EFC16D"/>
</linearGradient>
<linearGradient id="paint8_linear_4761_410" x1="52.9487" y1="1.44473" x2="0.940231" y2="1.44473" gradientUnits="userSpaceOnUse">
<stop offset="0.115152" stop-color="#C3935C"/>
<stop offset="0.890909" stop-color="#EFC16D"/>
</linearGradient>
</defs>
</svg>
